<?xml version="1.0" encoding="UTF-8"?>
<svg width="24px" height="24px" viewBox="0 0 24 24" version="1.1" xmlns="http://www.w3.org/2000/svg" xmlns:xlink="http://www.w3.org/1999/xlink">
    <title>Telegram</title>
    <g id="Telegram" stroke="none" stroke-width="1" fill="none" fill-rule="evenodd">
        <path d="M12,0 C18.627417,0 24,5.372583 24,12 C24,18.627417 18.627417,24 12,24 C5.372583,24 0,18.627417 0,12 C0,5.372583 5.372583,0 12,0 Z M17.0625,7.5 L5.0625,12.1875 C4.5,12.375 4.5,12.75 5.0625,12.9375 L7.6875,13.6875 L8.625,16.6875 C8.8125,17.0625 9.1875,17.0625 9.375,16.875 L10.875,15.375 L13.5,17.4375 C13.875,17.625 14.25,17.4375 14.25,17.0625 L17.0625,7.5 Z M14.625,9.75 L9.75,13.5 L9.5625,15.75 L8.8125,13.5 L14.625,9.75 Z" id="Combined-Shape" fill="#0088CC"></path>
    </g>
</svg>
